<svg xmlns="http://www.w3.org/2000/svg" version="1.1" xmlns:xlink="http://www.w3.org/1999/xlink"
    xmlns:svgjs="http://svgjs.dev/svgjs" width="1000" height="1000" viewBox="0 0 1000 1000">
    <rect width="1000" height="1000" fill="none"></rect>
    <g transform="matrix(0.7,0,0,0.7,149.57575757575756,430.05525423878987)">
        <svg viewBox="0 0 396 79" data-background-color="#ffffff"
            preserveAspectRatio="xMidYMid meet" height="199" width="1000"
            xmlns="http://www.w3.org/2000/svg" xmlns:xlink="http://www.w3.org/1999/xlink">
            <g id="tight-bounds" transform="matrix(1,0,0,1,0.2400000000000091,0.1671566054243101)">
                <svg viewBox="0 0 395.52 78.66568678915137" height="78.66568678915137"
                    width="395.52">
                    <g>
                        <svg viewBox="0 0 395.52 78.66568678915137" height="78.66568678915137"
                            width="395.52">
                            <g>
                                <svg viewBox="0 0 395.52 78.66568678915137"
                                    height="78.66568678915137" width="395.52">
                                    <g id="textblocktransform">
                                        <svg viewBox="0 0 395.52 78.66568678915137"
                                            height="78.66568678915137" width="395.52" id="textblock">
                                            <g>
                                                <svg viewBox="0 0 395.52 78.66568678915137"
                                                    height="78.66568678915137" width="395.52">
                                                    <g transform="matrix(1,0,0,1,0,0)">
                                                        <svg width="395.52"
                                                            viewBox="1.75 -33.70000076293945 171.44000244140625 34.10000228881836"
                                                            height="78.66568678915137"
                                                            data-palette-color="#00001a">
                                                            <path
                                                                d="M10.9-14.2L10.25-12.3 22.2-12.3 21.55-14.25 16.3-30.45Q15.7-28.3 10.9-14.2L10.9-14.2ZM30.65 0L26.3 0 23.35-8.85 9.1-8.85 6.1 0 1.75 0 13.5-33.7 19.1-33.7 30.65 0ZM40.3-33.7L40.3-3.65 54.65-3.65 54.65 0 36.25 0 36.25-33.7 40.3-33.7ZM80.65-12.7L80.65-12.7 80.65-33.7 84.7-33.7 84.7-12.8Q84.7-6.3 81.42-2.95 78.15 0.4 72.3 0.4L72.3 0.4Q66.55 0.4 63.3-2.88 60.05-6.15 60.05-12.4L60.05-12.4 60.05-33.7 64.09-33.7 64.09-12.45Q64.09-7.8 66.32-5.6 68.55-3.4 72.3-3.4L72.3-3.4Q80.65-3.4 80.65-12.7ZM96.04 0L91.99 0 94.44-33.7 99.59-33.7 104.04-21.4 109.44-5.7Q112.34-13.9 115.14-21.4L115.14-21.4 119.79-33.7 124.94-33.7 127.89 0 123.84 0 122.69-13.3 121.49-28.25Q118.84-20.85 116.04-13.3L116.04-13.3 111.34-0.75 107.49-0.75 103.04-13.3 97.94-27.95Q97.94-26 96.99-13.3L96.99-13.3 96.04 0ZM139.24 0L135.19 0 135.19-33.7 140.29-33.7 148.74-19.5 157.29-4.9Q157.09-9.75 157.09-19.45L157.09-19.45 157.09-33.7 161.14-33.7 161.14 0 156.04 0 147.59-14.1Q145.04-18.35 142.89-22.03 140.74-25.7 139.84-27.3L139.84-27.3 138.99-28.85Q139.24-23.65 139.24-14.2L139.24-14.2 139.24 0ZM173.19 0L169.14 0 169.14-33.7 173.19-33.7 173.19 0Z"
                                                                opacity="1"
                                                                transform="matrix(1,0,0,1,0,0)"
                                                                fill="#ffffff"
                                                                class="undefined-text-0"
                                                                data-fill-palette-color="primary"
                                                                id="text-0"></path>
                                                        </svg>
                                                    </g>
                                                </svg>
                                            </g>
                                        </svg>
                                    </g>
                                </svg>
                            </g>
                            <g></g>
                        </svg>
                    </g>
                    <defs></defs>
                </svg>
                <rect width="395.52" height="78.66568678915137" fill="none" stroke="none"
                    visibility="hidden"></rect>
            </g>
        </svg>
    </g>
</svg>